<mxfile host="app.diagrams.net" agent="Mozilla/5.0 (X11; Linux x86_64) AppleWebKit/537.36 (KHTML, like Gecko) Chrome/139.0.0.0 Safari/537.36" version="28.2.7">
  <diagram name="PÃ¡gina-1" id="-k3p7JQW819tkQQ7m0Kd">
    <mxGraphModel dx="2067" dy="1848" grid="1" gridSize="10" guides="1" tooltips="1" connect="1" arrows="1" fold="1" page="1" pageScale="1" pageWidth="827" pageHeight="1169" math="0" shadow="0">
      <root>
        <mxCell id="0" />
        <mxCell id="1" parent="0" />
        <mxCell id="6EcSVQOZprIdqBZqpw98-5" style="edgeStyle=none;curved=1;rounded=0;orthogonalLoop=1;jettySize=auto;html=1;exitX=0.5;exitY=1;exitDx=0;exitDy=0;fontSize=12;startSize=8;endSize=8;" parent="1" source="6EcSVQOZprIdqBZqpw98-1" target="6EcSVQOZprIdqBZqpw98-2" edge="1">
          <mxGeometry relative="1" as="geometry" />
        </mxCell>
        <mxCell id="6EcSVQOZprIdqBZqpw98-1" value="Start" style="rounded=0;whiteSpace=wrap;html=1;" parent="1" vertex="1">
          <mxGeometry x="160" y="90" width="120" height="60" as="geometry" />
        </mxCell>
        <mxCell id="6EcSVQOZprIdqBZqpw98-6" style="edgeStyle=none;curved=1;rounded=0;orthogonalLoop=1;jettySize=auto;html=1;fontSize=12;startSize=8;endSize=8;entryX=0.5;entryY=0;entryDx=0;entryDy=0;" parent="1" source="6EcSVQOZprIdqBZqpw98-2" target="-tfIYzK8GU7KflaSdOUZ-2" edge="1">
          <mxGeometry relative="1" as="geometry" />
        </mxCell>
        <mxCell id="6EcSVQOZprIdqBZqpw98-2" value="Apuesta" style="ellipse;whiteSpace=wrap;html=1;" parent="1" vertex="1">
          <mxGeometry x="160" y="190" width="120" height="80" as="geometry" />
        </mxCell>
        <mxCell id="6EcSVQOZprIdqBZqpw98-7" style="edgeStyle=none;curved=1;rounded=0;orthogonalLoop=1;jettySize=auto;html=1;exitX=0.5;exitY=1;exitDx=0;exitDy=0;entryX=0.5;entryY=0;entryDx=0;entryDy=0;fontSize=12;startSize=8;endSize=8;" parent="1" source="6EcSVQOZprIdqBZqpw98-3" target="6EcSVQOZprIdqBZqpw98-4" edge="1">
          <mxGeometry relative="1" as="geometry" />
        </mxCell>
        <mxCell id="6EcSVQOZprIdqBZqpw98-3" value="Dealer da cartas" style="rounded=0;whiteSpace=wrap;html=1;" parent="1" vertex="1">
          <mxGeometry x="160" y="400" width="120" height="60" as="geometry" />
        </mxCell>
        <mxCell id="6EcSVQOZprIdqBZqpw98-8" style="edgeStyle=none;curved=1;rounded=0;orthogonalLoop=1;jettySize=auto;html=1;fontSize=12;startSize=8;endSize=8;entryX=0;entryY=0.5;entryDx=0;entryDy=0;" parent="1" source="6EcSVQOZprIdqBZqpw98-4" target="6EcSVQOZprIdqBZqpw98-10" edge="1">
          <mxGeometry relative="1" as="geometry">
            <mxPoint x="370" y="570" as="targetPoint" />
          </mxGeometry>
        </mxCell>
        <mxCell id="6EcSVQOZprIdqBZqpw98-55" style="edgeStyle=none;curved=1;rounded=0;orthogonalLoop=1;jettySize=auto;html=1;exitX=0;exitY=0.5;exitDx=0;exitDy=0;fontSize=12;startSize=8;endSize=8;entryX=1;entryY=0.5;entryDx=0;entryDy=0;" parent="1" source="6EcSVQOZprIdqBZqpw98-4" target="6EcSVQOZprIdqBZqpw98-57" edge="1">
          <mxGeometry relative="1" as="geometry">
            <mxPoint x="80" y="569.5882352941176" as="targetPoint" />
          </mxGeometry>
        </mxCell>
        <mxCell id="6EcSVQOZprIdqBZqpw98-4" value="Plantarse" style="rhombus;whiteSpace=wrap;html=1;" parent="1" vertex="1">
          <mxGeometry x="180" y="530" width="80" height="80" as="geometry" />
        </mxCell>
        <mxCell id="6EcSVQOZprIdqBZqpw98-9" value="SI" style="text;html=1;whiteSpace=wrap;strokeColor=none;fillColor=none;align=center;verticalAlign=middle;rounded=0;fontSize=16;" parent="1" vertex="1">
          <mxGeometry x="280" y="530" width="60" height="30" as="geometry" />
        </mxCell>
        <mxCell id="6EcSVQOZprIdqBZqpw98-12" style="edgeStyle=none;curved=1;rounded=0;orthogonalLoop=1;jettySize=auto;html=1;fontSize=12;startSize=8;endSize=8;entryX=0.5;entryY=1;entryDx=0;entryDy=0;" parent="1" source="6EcSVQOZprIdqBZqpw98-10" target="6EcSVQOZprIdqBZqpw98-13" edge="1">
          <mxGeometry relative="1" as="geometry">
            <mxPoint x="420" y="440" as="targetPoint" />
          </mxGeometry>
        </mxCell>
        <mxCell id="6EcSVQOZprIdqBZqpw98-23" style="edgeStyle=none;curved=1;rounded=0;orthogonalLoop=1;jettySize=auto;html=1;fontSize=12;startSize=8;endSize=8;entryX=0;entryY=0.5;entryDx=0;entryDy=0;" parent="1" source="6EcSVQOZprIdqBZqpw98-10" target="6EcSVQOZprIdqBZqpw98-25" edge="1">
          <mxGeometry relative="1" as="geometry">
            <mxPoint x="570" y="570" as="targetPoint" />
          </mxGeometry>
        </mxCell>
        <mxCell id="6EcSVQOZprIdqBZqpw98-10" value="Destapa" style="rhombus;whiteSpace=wrap;html=1;" parent="1" vertex="1">
          <mxGeometry x="380" y="530" width="80" height="80" as="geometry" />
        </mxCell>
        <mxCell id="-tfIYzK8GU7KflaSdOUZ-11" style="edgeStyle=orthogonalEdgeStyle;rounded=0;orthogonalLoop=1;jettySize=auto;html=1;entryX=0;entryY=0.5;entryDx=0;entryDy=0;" edge="1" parent="1" source="6EcSVQOZprIdqBZqpw98-13" target="-tfIYzK8GU7KflaSdOUZ-10">
          <mxGeometry relative="1" as="geometry" />
        </mxCell>
        <mxCell id="6EcSVQOZprIdqBZqpw98-13" value="Se planta Dealer" style="rounded=0;whiteSpace=wrap;html=1;" parent="1" vertex="1">
          <mxGeometry x="360" y="250" width="120" height="60" as="geometry" />
        </mxCell>
        <mxCell id="6EcSVQOZprIdqBZqpw98-15" value="dealer =&amp;gt;17" style="text;html=1;whiteSpace=wrap;strokeColor=none;fillColor=none;align=center;verticalAlign=middle;rounded=0;fontSize=16;" parent="1" vertex="1">
          <mxGeometry x="430" y="390" width="60" height="30" as="geometry" />
        </mxCell>
        <mxCell id="-tfIYzK8GU7KflaSdOUZ-22" style="edgeStyle=orthogonalEdgeStyle;rounded=0;orthogonalLoop=1;jettySize=auto;html=1;entryX=0.5;entryY=1;entryDx=0;entryDy=0;" edge="1" parent="1" source="6EcSVQOZprIdqBZqpw98-17" target="6EcSVQOZprIdqBZqpw98-67">
          <mxGeometry relative="1" as="geometry">
            <Array as="points">
              <mxPoint x="1520" y="280" />
              <mxPoint x="1520" y="990" />
              <mxPoint x="414" y="990" />
            </Array>
          </mxGeometry>
        </mxCell>
        <mxCell id="-tfIYzK8GU7KflaSdOUZ-23" style="edgeStyle=orthogonalEdgeStyle;rounded=0;orthogonalLoop=1;jettySize=auto;html=1;entryX=0.5;entryY=1;entryDx=0;entryDy=0;" edge="1" parent="1" source="6EcSVQOZprIdqBZqpw98-17" target="6EcSVQOZprIdqBZqpw98-66">
          <mxGeometry relative="1" as="geometry">
            <Array as="points">
              <mxPoint x="1010" y="220" />
              <mxPoint x="1590" y="220" />
              <mxPoint x="1590" y="1040" />
              <mxPoint x="160" y="1040" />
            </Array>
          </mxGeometry>
        </mxCell>
        <mxCell id="6EcSVQOZprIdqBZqpw98-17" value="Dealer &amp;gt; Jugador" style="rhombus;whiteSpace=wrap;html=1;" parent="1" vertex="1">
          <mxGeometry x="970" y="240" width="80" height="80" as="geometry" />
        </mxCell>
        <mxCell id="6EcSVQOZprIdqBZqpw98-24" value="SI dealer&amp;lt;17" style="text;html=1;whiteSpace=wrap;strokeColor=none;fillColor=none;align=center;verticalAlign=middle;rounded=0;fontSize=16;" parent="1" vertex="1">
          <mxGeometry x="520" y="495" width="100" height="90" as="geometry" />
        </mxCell>
        <mxCell id="6EcSVQOZprIdqBZqpw98-30" style="edgeStyle=none;curved=1;rounded=0;orthogonalLoop=1;jettySize=auto;html=1;exitX=0.5;exitY=0;exitDx=0;exitDy=0;entryX=0.5;entryY=1;entryDx=0;entryDy=0;fontSize=12;startSize=8;endSize=8;entryPerimeter=0;" parent="1" source="6EcSVQOZprIdqBZqpw98-25" target="-tfIYzK8GU7KflaSdOUZ-14" edge="1">
          <mxGeometry relative="1" as="geometry">
            <mxPoint x="740" y="415" as="targetPoint" />
          </mxGeometry>
        </mxCell>
        <mxCell id="-tfIYzK8GU7KflaSdOUZ-31" style="edgeStyle=orthogonalEdgeStyle;rounded=0;orthogonalLoop=1;jettySize=auto;html=1;entryX=0;entryY=0.5;entryDx=0;entryDy=0;" edge="1" parent="1" source="6EcSVQOZprIdqBZqpw98-25" target="-tfIYzK8GU7KflaSdOUZ-26">
          <mxGeometry relative="1" as="geometry" />
        </mxCell>
        <mxCell id="6EcSVQOZprIdqBZqpw98-25" value="Dealer &amp;lt;22" style="rhombus;whiteSpace=wrap;html=1;" parent="1" vertex="1">
          <mxGeometry x="700" y="530" width="80" height="80" as="geometry" />
        </mxCell>
        <mxCell id="6EcSVQOZprIdqBZqpw98-31" value="NO" style="text;html=1;whiteSpace=wrap;strokeColor=none;fillColor=none;align=center;verticalAlign=middle;rounded=0;fontSize=16;" parent="1" vertex="1">
          <mxGeometry x="780" y="530" width="60" height="30" as="geometry" />
        </mxCell>
        <mxCell id="6EcSVQOZprIdqBZqpw98-34" value="SI" style="text;html=1;whiteSpace=wrap;strokeColor=none;fillColor=none;align=center;verticalAlign=middle;rounded=0;fontSize=16;" parent="1" vertex="1">
          <mxGeometry x="1060" y="500" width="60" height="30" as="geometry" />
        </mxCell>
        <mxCell id="6EcSVQOZprIdqBZqpw98-38" style="edgeStyle=none;curved=1;rounded=0;orthogonalLoop=1;jettySize=auto;html=1;fontSize=12;startSize=8;endSize=8;entryX=0.5;entryY=1;entryDx=0;entryDy=0;" parent="1" source="6EcSVQOZprIdqBZqpw98-37" target="6EcSVQOZprIdqBZqpw98-39" edge="1">
          <mxGeometry relative="1" as="geometry">
            <mxPoint x="820" y="470" as="targetPoint" />
          </mxGeometry>
        </mxCell>
        <mxCell id="6EcSVQOZprIdqBZqpw98-40" style="edgeStyle=none;curved=1;rounded=0;orthogonalLoop=1;jettySize=auto;html=1;fontSize=12;startSize=8;endSize=8;entryX=0;entryY=0.5;entryDx=0;entryDy=0;" parent="1" source="6EcSVQOZprIdqBZqpw98-37" target="6EcSVQOZprIdqBZqpw98-44" edge="1">
          <mxGeometry relative="1" as="geometry">
            <mxPoint x="950" y="570" as="targetPoint" />
          </mxGeometry>
        </mxCell>
        <mxCell id="6EcSVQOZprIdqBZqpw98-37" value="Dealer &amp;gt; jugador" style="rhombus;whiteSpace=wrap;html=1;" parent="1" vertex="1">
          <mxGeometry x="1020" y="530" width="80" height="80" as="geometry" />
        </mxCell>
        <mxCell id="-tfIYzK8GU7KflaSdOUZ-19" style="edgeStyle=orthogonalEdgeStyle;rounded=0;orthogonalLoop=1;jettySize=auto;html=1;entryX=0.5;entryY=0;entryDx=0;entryDy=0;" edge="1" parent="1" source="6EcSVQOZprIdqBZqpw98-39" target="6EcSVQOZprIdqBZqpw98-66">
          <mxGeometry relative="1" as="geometry">
            <Array as="points">
              <mxPoint x="1360" y="450" />
              <mxPoint x="1360" y="820" />
              <mxPoint x="160" y="820" />
            </Array>
          </mxGeometry>
        </mxCell>
        <mxCell id="6EcSVQOZprIdqBZqpw98-39" value="Dealer wins" style="whiteSpace=wrap;html=1;" parent="1" vertex="1">
          <mxGeometry x="1000" y="435" width="120" height="60" as="geometry" />
        </mxCell>
        <mxCell id="6EcSVQOZprIdqBZqpw98-42" value="NO" style="text;html=1;whiteSpace=wrap;strokeColor=none;fillColor=none;align=center;verticalAlign=middle;rounded=0;fontSize=16;" parent="1" vertex="1">
          <mxGeometry x="1120" y="540" width="60" height="30" as="geometry" />
        </mxCell>
        <mxCell id="6EcSVQOZprIdqBZqpw98-54" style="edgeStyle=none;curved=1;rounded=0;orthogonalLoop=1;jettySize=auto;html=1;exitX=0.5;exitY=1;exitDx=0;exitDy=0;fontSize=12;startSize=8;endSize=8;" parent="1" source="6EcSVQOZprIdqBZqpw98-44" edge="1">
          <mxGeometry relative="1" as="geometry">
            <mxPoint x="1060" y="630" as="sourcePoint" />
            <mxPoint x="420" y="610" as="targetPoint" />
            <Array as="points">
              <mxPoint x="840" y="940" />
            </Array>
          </mxGeometry>
        </mxCell>
        <mxCell id="6EcSVQOZprIdqBZqpw98-44" value="roba" style="whiteSpace=wrap;html=1;" parent="1" vertex="1">
          <mxGeometry x="1200" y="540" width="120" height="60" as="geometry" />
        </mxCell>
        <mxCell id="6EcSVQOZprIdqBZqpw98-56" value="NO" style="text;html=1;whiteSpace=wrap;strokeColor=none;fillColor=none;align=center;verticalAlign=middle;rounded=0;fontSize=16;" parent="1" vertex="1">
          <mxGeometry x="80" y="530" width="60" height="30" as="geometry" />
        </mxCell>
        <mxCell id="6EcSVQOZprIdqBZqpw98-58" style="edgeStyle=none;curved=1;rounded=0;orthogonalLoop=1;jettySize=auto;html=1;fontSize=12;startSize=8;endSize=8;entryX=1;entryY=0.5;entryDx=0;entryDy=0;" parent="1" source="6EcSVQOZprIdqBZqpw98-57" target="6EcSVQOZprIdqBZqpw98-59" edge="1">
          <mxGeometry relative="1" as="geometry">
            <mxPoint x="-170" y="570" as="targetPoint" />
          </mxGeometry>
        </mxCell>
        <mxCell id="6EcSVQOZprIdqBZqpw98-57" value="Robo" style="rounded=0;whiteSpace=wrap;html=1;" parent="1" vertex="1">
          <mxGeometry x="-60" y="540" width="120" height="60" as="geometry" />
        </mxCell>
        <mxCell id="6EcSVQOZprIdqBZqpw98-60" style="edgeStyle=none;curved=1;rounded=0;orthogonalLoop=1;jettySize=auto;html=1;entryX=0.5;entryY=1;entryDx=0;entryDy=0;fontSize=12;startSize=8;endSize=8;" parent="1" source="6EcSVQOZprIdqBZqpw98-59" target="6EcSVQOZprIdqBZqpw98-4" edge="1">
          <mxGeometry relative="1" as="geometry">
            <Array as="points">
              <mxPoint x="10" y="890" />
            </Array>
          </mxGeometry>
        </mxCell>
        <mxCell id="6EcSVQOZprIdqBZqpw98-69" style="edgeStyle=none;curved=1;rounded=0;orthogonalLoop=1;jettySize=auto;html=1;exitX=0.5;exitY=1;exitDx=0;exitDy=0;entryX=0;entryY=0.5;entryDx=0;entryDy=0;fontSize=12;startSize=8;endSize=8;" parent="1" source="6EcSVQOZprIdqBZqpw98-59" target="6EcSVQOZprIdqBZqpw98-66" edge="1">
          <mxGeometry relative="1" as="geometry">
            <Array as="points">
              <mxPoint x="-460" y="1000" />
            </Array>
          </mxGeometry>
        </mxCell>
        <mxCell id="6EcSVQOZprIdqBZqpw98-59" value="player &amp;gt;= 22" style="rhombus;whiteSpace=wrap;html=1;" parent="1" vertex="1">
          <mxGeometry x="-290" y="530" width="80" height="80" as="geometry" />
        </mxCell>
        <mxCell id="6EcSVQOZprIdqBZqpw98-61" value="NO" style="text;html=1;whiteSpace=wrap;strokeColor=none;fillColor=none;align=center;verticalAlign=middle;rounded=0;fontSize=16;" parent="1" vertex="1">
          <mxGeometry x="-80" y="680" width="60" height="30" as="geometry" />
        </mxCell>
        <mxCell id="6EcSVQOZprIdqBZqpw98-65" value="TENER EN CUENTA QUE PUEDEN EMPATAR" style="text;html=1;whiteSpace=wrap;strokeColor=none;fillColor=none;align=center;verticalAlign=middle;rounded=0;fontSize=16;" parent="1" vertex="1">
          <mxGeometry x="80" y="-40" width="310" height="90" as="geometry" />
        </mxCell>
        <mxCell id="6EcSVQOZprIdqBZqpw98-66" value="DEALER WINS&lt;div&gt;Restar apuesta a jugador&lt;/div&gt;" style="rounded=0;whiteSpace=wrap;html=1;" parent="1" vertex="1">
          <mxGeometry x="100" y="910" width="120" height="60" as="geometry" />
        </mxCell>
        <mxCell id="6EcSVQOZprIdqBZqpw98-67" value="PLAYER WINS&lt;div&gt;AÃ±adir apuesta x2 a jugador&lt;/div&gt;" style="rounded=0;whiteSpace=wrap;html=1;" parent="1" vertex="1">
          <mxGeometry x="354" y="910" width="120" height="60" as="geometry" />
        </mxCell>
        <mxCell id="6EcSVQOZprIdqBZqpw98-68" value="EMPATE" style="rounded=0;whiteSpace=wrap;html=1;" parent="1" vertex="1">
          <mxGeometry x="610" y="910" width="120" height="60" as="geometry" />
        </mxCell>
        <mxCell id="6EcSVQOZprIdqBZqpw98-70" value="SI" style="text;html=1;whiteSpace=wrap;strokeColor=none;fillColor=none;align=center;verticalAlign=middle;rounded=0;fontSize=16;" parent="1" vertex="1">
          <mxGeometry x="-280" y="850" width="60" height="30" as="geometry" />
        </mxCell>
        <mxCell id="-tfIYzK8GU7KflaSdOUZ-3" style="edgeStyle=orthogonalEdgeStyle;rounded=0;orthogonalLoop=1;jettySize=auto;html=1;entryX=0.5;entryY=0;entryDx=0;entryDy=0;" edge="1" parent="1" source="-tfIYzK8GU7KflaSdOUZ-2" target="6EcSVQOZprIdqBZqpw98-3">
          <mxGeometry relative="1" as="geometry" />
        </mxCell>
        <mxCell id="-tfIYzK8GU7KflaSdOUZ-5" style="edgeStyle=orthogonalEdgeStyle;rounded=0;orthogonalLoop=1;jettySize=auto;html=1;entryX=0;entryY=0.5;entryDx=0;entryDy=0;" edge="1" parent="1" source="-tfIYzK8GU7KflaSdOUZ-2" target="6EcSVQOZprIdqBZqpw98-1">
          <mxGeometry relative="1" as="geometry">
            <Array as="points">
              <mxPoint x="100" y="340" />
              <mxPoint x="100" y="120" />
            </Array>
          </mxGeometry>
        </mxCell>
        <mxCell id="-tfIYzK8GU7KflaSdOUZ-2" value="Tiene saldo suficiciente" style="rhombus;whiteSpace=wrap;html=1;" vertex="1" parent="1">
          <mxGeometry x="180" y="300" width="80" height="80" as="geometry" />
        </mxCell>
        <mxCell id="-tfIYzK8GU7KflaSdOUZ-4" value="SI" style="text;html=1;whiteSpace=wrap;strokeColor=none;fillColor=none;align=center;verticalAlign=middle;rounded=0;" vertex="1" parent="1">
          <mxGeometry x="220" y="370" width="60" height="30" as="geometry" />
        </mxCell>
        <mxCell id="-tfIYzK8GU7KflaSdOUZ-6" value="NO" style="text;html=1;whiteSpace=wrap;strokeColor=none;fillColor=none;align=center;verticalAlign=middle;rounded=0;" vertex="1" parent="1">
          <mxGeometry x="30" y="230" width="60" height="30" as="geometry" />
        </mxCell>
        <mxCell id="-tfIYzK8GU7KflaSdOUZ-15" style="edgeStyle=orthogonalEdgeStyle;rounded=0;orthogonalLoop=1;jettySize=auto;html=1;entryX=0.5;entryY=0;entryDx=0;entryDy=0;" edge="1" parent="1" source="-tfIYzK8GU7KflaSdOUZ-10" target="-tfIYzK8GU7KflaSdOUZ-14">
          <mxGeometry relative="1" as="geometry" />
        </mxCell>
        <mxCell id="-tfIYzK8GU7KflaSdOUZ-35" style="edgeStyle=orthogonalEdgeStyle;rounded=0;orthogonalLoop=1;jettySize=auto;html=1;entryX=0;entryY=0.5;entryDx=0;entryDy=0;" edge="1" parent="1" source="-tfIYzK8GU7KflaSdOUZ-10" target="-tfIYzK8GU7KflaSdOUZ-34">
          <mxGeometry relative="1" as="geometry" />
        </mxCell>
        <mxCell id="-tfIYzK8GU7KflaSdOUZ-10" value="Dealer &amp;lt;22" style="rhombus;whiteSpace=wrap;html=1;" vertex="1" parent="1">
          <mxGeometry x="700" y="240" width="80" height="80" as="geometry" />
        </mxCell>
        <mxCell id="-tfIYzK8GU7KflaSdOUZ-13" value="SI" style="text;html=1;whiteSpace=wrap;strokeColor=none;fillColor=none;align=center;verticalAlign=middle;rounded=0;fontSize=16;" vertex="1" parent="1">
          <mxGeometry x="670" y="460" width="60" height="30" as="geometry" />
        </mxCell>
        <mxCell id="-tfIYzK8GU7KflaSdOUZ-18" style="edgeStyle=orthogonalEdgeStyle;rounded=0;orthogonalLoop=1;jettySize=auto;html=1;entryX=0.5;entryY=0;entryDx=0;entryDy=0;" edge="1" parent="1" source="-tfIYzK8GU7KflaSdOUZ-14" target="6EcSVQOZprIdqBZqpw98-67">
          <mxGeometry relative="1" as="geometry">
            <Array as="points">
              <mxPoint x="1470" y="410" />
              <mxPoint x="1470" y="890" />
              <mxPoint x="414" y="890" />
            </Array>
          </mxGeometry>
        </mxCell>
        <mxCell id="-tfIYzK8GU7KflaSdOUZ-14" value="Dealer loses" style="whiteSpace=wrap;html=1;" vertex="1" parent="1">
          <mxGeometry x="680" y="390" width="120" height="60" as="geometry" />
        </mxCell>
        <mxCell id="-tfIYzK8GU7KflaSdOUZ-20" value="SI" style="text;html=1;whiteSpace=wrap;strokeColor=none;fillColor=none;align=center;verticalAlign=middle;rounded=0;fontSize=16;" vertex="1" parent="1">
          <mxGeometry x="670" y="340" width="60" height="30" as="geometry" />
        </mxCell>
        <mxCell id="-tfIYzK8GU7KflaSdOUZ-21" value="NO" style="text;html=1;whiteSpace=wrap;strokeColor=none;fillColor=none;align=center;verticalAlign=middle;rounded=0;fontSize=16;" vertex="1" parent="1">
          <mxGeometry x="767" y="230" width="60" height="30" as="geometry" />
        </mxCell>
        <mxCell id="-tfIYzK8GU7KflaSdOUZ-24" value="NO" style="text;html=1;whiteSpace=wrap;strokeColor=none;fillColor=none;align=center;verticalAlign=middle;rounded=0;fontSize=16;" vertex="1" parent="1">
          <mxGeometry x="1100" y="280" width="60" height="30" as="geometry" />
        </mxCell>
        <mxCell id="-tfIYzK8GU7KflaSdOUZ-25" value="SI" style="text;html=1;whiteSpace=wrap;strokeColor=none;fillColor=none;align=center;verticalAlign=middle;rounded=0;fontSize=16;" vertex="1" parent="1">
          <mxGeometry x="1100" y="190" width="60" height="30" as="geometry" />
        </mxCell>
        <mxCell id="-tfIYzK8GU7KflaSdOUZ-29" style="edgeStyle=orthogonalEdgeStyle;rounded=0;orthogonalLoop=1;jettySize=auto;html=1;" edge="1" parent="1" source="-tfIYzK8GU7KflaSdOUZ-26" target="6EcSVQOZprIdqBZqpw98-68">
          <mxGeometry relative="1" as="geometry">
            <Array as="points">
              <mxPoint x="910" y="940" />
            </Array>
          </mxGeometry>
        </mxCell>
        <mxCell id="-tfIYzK8GU7KflaSdOUZ-33" style="edgeStyle=orthogonalEdgeStyle;rounded=0;orthogonalLoop=1;jettySize=auto;html=1;entryX=0;entryY=0.5;entryDx=0;entryDy=0;" edge="1" parent="1" source="-tfIYzK8GU7KflaSdOUZ-26" target="6EcSVQOZprIdqBZqpw98-37">
          <mxGeometry relative="1" as="geometry" />
        </mxCell>
        <mxCell id="-tfIYzK8GU7KflaSdOUZ-26" value="Dealer = jugador" style="rhombus;whiteSpace=wrap;html=1;" vertex="1" parent="1">
          <mxGeometry x="870" y="530" width="80" height="80" as="geometry" />
        </mxCell>
        <mxCell id="-tfIYzK8GU7KflaSdOUZ-27" value="NO" style="text;html=1;whiteSpace=wrap;strokeColor=none;fillColor=none;align=center;verticalAlign=middle;rounded=0;fontSize=16;" vertex="1" parent="1">
          <mxGeometry x="960" y="525" width="60" height="30" as="geometry" />
        </mxCell>
        <mxCell id="-tfIYzK8GU7KflaSdOUZ-28" value="SI" style="text;html=1;whiteSpace=wrap;strokeColor=none;fillColor=none;align=center;verticalAlign=middle;rounded=0;fontSize=16;" vertex="1" parent="1">
          <mxGeometry x="910" y="630" width="60" height="30" as="geometry" />
        </mxCell>
        <mxCell id="-tfIYzK8GU7KflaSdOUZ-36" style="edgeStyle=orthogonalEdgeStyle;rounded=0;orthogonalLoop=1;jettySize=auto;html=1;entryX=0;entryY=0.5;entryDx=0;entryDy=0;" edge="1" parent="1" source="-tfIYzK8GU7KflaSdOUZ-34" target="6EcSVQOZprIdqBZqpw98-17">
          <mxGeometry relative="1" as="geometry" />
        </mxCell>
        <mxCell id="-tfIYzK8GU7KflaSdOUZ-38" style="edgeStyle=orthogonalEdgeStyle;rounded=0;orthogonalLoop=1;jettySize=auto;html=1;exitX=0.5;exitY=1;exitDx=0;exitDy=0;" edge="1" parent="1" source="-tfIYzK8GU7KflaSdOUZ-34">
          <mxGeometry relative="1" as="geometry">
            <mxPoint x="850" y="320" as="sourcePoint" />
            <mxPoint x="710" y="940" as="targetPoint" />
            <Array as="points">
              <mxPoint x="850" y="320" />
              <mxPoint x="850" y="940" />
            </Array>
          </mxGeometry>
        </mxCell>
        <mxCell id="-tfIYzK8GU7KflaSdOUZ-34" value="Dealer = jugador" style="rhombus;whiteSpace=wrap;html=1;" vertex="1" parent="1">
          <mxGeometry x="830" y="240" width="80" height="80" as="geometry" />
        </mxCell>
        <mxCell id="-tfIYzK8GU7KflaSdOUZ-37" value="SI" style="text;html=1;whiteSpace=wrap;strokeColor=none;fillColor=none;align=center;verticalAlign=middle;rounded=0;fontSize=16;" vertex="1" parent="1">
          <mxGeometry x="850" y="350" width="60" height="30" as="geometry" />
        </mxCell>
        <mxCell id="-tfIYzK8GU7KflaSdOUZ-39" value="NO" style="text;html=1;whiteSpace=wrap;strokeColor=none;fillColor=none;align=center;verticalAlign=middle;rounded=0;fontSize=16;" vertex="1" parent="1">
          <mxGeometry x="910" y="240" width="60" height="30" as="geometry" />
        </mxCell>
      </root>
    </mxGraphModel>
  </diagram>
</mxfile>
